<?xml version="1.0" encoding="UTF-8"?>
<svg id="Layer_1" xmlns="http://www.w3.org/2000/svg" version="1.1" viewBox="0 0 2000 1000">
  <!-- Generator: Adobe Illustrator 29.1.0, SVG Export Plug-In . SVG Version: 2.1.0 Build 142)  -->
  <defs>
    <style>
      .st0 {
        fill: #33a3dc;
      }

      .st1 {
        fill: #e6e7e8;
      }
    </style>
  </defs>
  <rect class="st0" x="-19.67" y="-26.22" width="2039.33" height="1052.44"/>
  <g>
    <g>
      <path class="st1" d="M248.39,350h51.52v218.18c0,15.62,12.66,28.28,28.28,28.28h163.64v53.54h-164.39c-43.65,0-79.04-35.39-79.04-79.04v-220.96Z"/>
      <path class="st1" d="M344.85,350v216.16h51.52v-163.13h12.37c18.55,0,33.59,15.04,33.59,33.59v129.55h49.49v-139.14c0-42.54-34.48-77.02-77.02-77.02h-69.95Z"/>
      <path class="st1" d="M512.53,350h0c-14.71,0-27.15,3.48-38.01,11.92,12.46,11.43,21.63,26.39,25.94,43.27,2.95-1.16,6.07-1.99,9.36-2.51,18.46-2.9,35.09,11.57,35.21,30.26l1.35,217.07h50v-216.16c0-46.3-37.54-83.84-83.84-83.84Z"/>
    </g>
    <g>
      <g>
        <polygon class="st1" points="679.69 350 645.33 350 645.33 480.84 740.7 480.84 740.7 451.44 679.69 451.44 679.69 350"/>
        <polygon class="st1" points="855.74 350 831.3 440.78 807.41 350 757.79 350 757.79 480.84 789.95 480.84 788.85 381.24 817.88 480.84 844.16 480.84 873.38 381.06 871.72 480.84 904.07 480.84 904.07 350 855.74 350"/>
      </g>
      <g>
        <polygon class="st1" points="769.32 611.59 750.94 516.04 718.42 516.04 698.94 611.59 680.2 516.04 645.83 516.04 681.48 646.88 716.21 646.88 734.22 556.46 752.6 646.88 786.78 646.88 823.16 516.04 788.8 516.04 769.32 611.59"/>
        <path class="st1" d="M895.02,512.91c-19.36,0-35.07,6.49-47.13,19.48-12.07,12.99-18.1,29.34-18.1,49.06s5.94,36.69,17.82,49.43c11.88,12.74,27.81,19.11,47.78,19.11s34.82-6.46,46.4-19.39c11.58-12.92,17.37-29.25,17.37-48.97,0-20.95-5.82-37.64-17.46-50.08-11.64-12.43-27.2-18.65-46.68-18.65ZM916.52,611.04c-5.15,7.23-12.37,10.84-21.68,10.84s-16.81-3.61-22.14-10.84c-5.33-7.23-7.99-17.21-7.99-29.95s2.7-22.2,8.09-29.49c5.39-7.29,12.68-10.93,21.87-10.93s16.42,3.55,21.68,10.66c5.27,7.11,7.9,16.84,7.9,29.22,0,13.11-2.57,23.28-7.72,30.5Z"/>
        <path class="st1" d="M1092.01,642.47c-.25-.86-.46-1.56-.64-2.11-.18-.55-.34-1.35-.46-2.39-.12-1.04-.21-1.81-.28-2.3s-.15-1.38-.28-2.66c-.12-1.29-.18-2.11-.18-2.48-1.1-13.11-2.45-22.36-4.04-27.75-2.33-8.33-7.84-13.97-16.54-16.91,13.48-6.13,20.21-16.78,20.21-31.97,0-12.37-4.13-21.78-12.4-28.21-8.27-6.43-18.9-9.65-31.88-9.65h-68.18v130.84s34.18,0,34.18,0v-48.7h20.95c7.84,0,13.48,1.59,16.91,4.78,3.43,3.18,5.57,8.7,6.43,16.54.12,1.35.31,4.17.55,8.45.25,4.29.61,7.93,1.1,10.93.49,3,1.23,5.67,2.21,7.99h34.73c-.49-.74-.95-1.44-1.38-2.11-.43-.67-.77-1.44-1.01-2.3ZM1050.76,570.61c-3.61,2.2-8.67,3.31-15.16,3.31h-24.07v-31.42h23.71c13.97,0,20.95,5.08,20.95,15.25,0,6.37-1.81,10.66-5.42,12.86Z"/>
        <polygon class="st1" points="1230.2 516.04 1187.93 516.04 1144.2 566.02 1144.2 516.04 1110.75 516.04 1110.75 646.88 1144.56 646.88 1144.56 606.45 1158.53 591.93 1193.81 646.88 1236.26 646.88 1181.68 567.31 1230.2 516.04"/>
        <path class="st1" d="M1332.37,575.02c-7.96-3.68-23.34-8.51-46.12-14.52-3.8-.98-6.4-2.2-7.81-3.68s-2.11-3.55-2.11-6.25c0-3.43,1.53-6.16,4.59-8.18,3.06-2.02,7.29-3.03,12.68-3.03,13.48,0,20.58,5.33,21.32,15.99h32.53c-.25-13.6-4.81-24.01-13.69-31.24-8.88-7.23-21.47-10.84-37.76-10.84s-29,3.64-38.5,10.93c-9.49,7.29-14.24,17.12-14.24,29.49,0,15.56,8.51,26.4,25.54,32.53,9.19,3.43,19.97,6.86,32.34,10.29,6.49,1.71,11,3.58,13.51,5.6,2.51,2.02,3.77,4.81,3.77,8.36,0,8.82-6.49,13.23-19.48,13.23-17.52,0-26.28-6.92-26.28-20.76h-34.36c.24,14.82,5.51,26.34,15.8,34.55,10.29,8.21,24.5,12.31,42.63,12.31,17.15,0,30.78-3.89,40.89-11.67,10.11-7.78,15.16-18.22,15.16-31.33,0-14.82-6.8-25.42-20.4-31.79Z"/>
        <polygon class="st1" points="1447.59 562.71 1403.3 562.71 1403.3 516.04 1368.94 516.04 1368.94 646.88 1403.3 646.88 1403.3 592.85 1447.59 592.85 1447.59 646.88 1481.95 646.88 1481.95 516.04 1447.59 516.04 1447.59 562.71"/>
        <path class="st1" d="M1559.77,512.91c-19.36,0-35.07,6.49-47.13,19.48-12.07,12.99-18.1,29.34-18.1,49.06s5.94,36.69,17.82,49.43c11.88,12.74,27.81,19.11,47.78,19.11s34.82-6.46,46.4-19.39c11.58-12.92,17.37-29.25,17.37-48.97,0-20.95-5.82-37.64-17.46-50.08-11.64-12.43-27.2-18.65-46.68-18.65ZM1581.27,611.04c-5.15,7.23-12.37,10.84-21.68,10.84s-16.81-3.61-22.14-10.84c-5.33-7.23-7.99-17.21-7.99-29.95s2.7-22.2,8.09-29.49c5.39-7.29,12.68-10.93,21.87-10.93s16.42,3.55,21.68,10.66c5.27,7.11,7.9,16.84,7.9,29.22,0,13.11-2.57,23.28-7.72,30.5Z"/>
        <path class="st1" d="M1737.83,526.51c-9.19-6.98-21.81-10.47-37.85-10.47h-57.52v130.84h34.18v-43.74h28.85c14.09,0,25.3-3.61,33.63-10.84,8.33-7.23,12.5-17.95,12.5-32.16,0-15.44-4.59-26.65-13.78-33.63ZM1716.79,569.42c-1.16,2.27-2.94,3.89-5.33,4.87-2.39.98-4.69,1.62-6.89,1.93-2.21.31-5.08.46-8.64.46h-19.29v-32.71h22.05c6.37,0,11.27,1.26,14.7,3.77,3.43,2.51,5.15,6.77,5.15,12.77,0,3.68-.58,6.65-1.75,8.91Z"/>
      </g>
    </g>
  </g>
</svg>