<?xml version="1.0" encoding="UTF-8"?>
<svg xmlns="http://www.w3.org/2000/svg" viewBox="245 245 510 435">
  <path fill="#33a3dc" d="M260,257h71.06v300.96c0,21.55,17.47,39.01,39.01,39.01h225.72v73.85h-226.76c-60.21,0-109.03-48.81-109.03-109.03v-304.79Z"/>
  <path fill="#33a3dc" d="M393.06,257v298.17h71.06v-225.02h17.07c25.59,0,46.33,20.74,46.33,46.33v178.69h68.27v-191.93c0-58.68-47.57-106.24-106.24-106.24h-96.49Z"/>
  <path fill="#33a3dc" d="M624.35,257h0c-20.29,0-37.44,4.8-52.44,16.44,17.18,15.77,29.84,36.4,35.78,59.68,4.07-1.6,8.37-2.75,12.91-3.46,25.46-3.99,48.4,15.97,48.56,41.74l1.86,299.42h68.97v-298.17c0-63.87-51.78-115.65-115.65-115.65Z"/>
</svg>
