<?xml version="1.0" encoding="UTF-8"?>
<svg id="Layer_1" xmlns="http://www.w3.org/2000/svg" version="1.1" viewBox="0 0 1000 1000">
  <!-- Generator: Adobe Illustrator 29.1.0, SVG Export Plug-In . SVG Version: 2.1.0 Build 142)  -->
  <defs>
    <style>
      .st0 {
        fill: #33a3dc;
      }
    </style>
  </defs>
  <g>
    <path class="st0" d="M260,257h71.06v300.96c0,21.55,17.47,39.01,39.01,39.01h225.72v73.85h-226.76c-60.21,0-109.03-48.81-109.03-109.03v-304.79Z"/>
    <path class="st0" d="M393.06,257v298.17h71.06v-225.02h17.07c25.59,0,46.33,20.74,46.33,46.33v178.69h68.27v-191.93c0-58.68-47.57-106.24-106.24-106.24h-96.49Z"/>
    <path class="st0" d="M624.35,257h0c-20.29,0-37.44,4.8-52.44,16.44,17.18,15.77,29.84,36.4,35.78,59.68,4.07-1.6,8.37-2.75,12.91-3.46,25.46-3.99,48.4,15.97,48.56,41.74l1.86,299.42h68.97v-298.17c0-63.87-51.78-115.65-115.65-115.65Z"/>
  </g>
  <g>
    <path class="st0" d="M291.69,741.96h-31.69v-43.47h11.42v33.7h20.27v9.77Z"/>
    <path class="st0" d="M297.36,698.49h16.48l7.94,30.16,8.12-30.16h16.06v43.47h-10.75l.55-33.15-9.71,33.15h-8.73l-9.65-33.09.37,33.09h-10.68v-43.47Z"/>
    <path class="st0" d="M380.95,741.96l-11.84-43.47h11.42l6.23,31.75,6.47-31.75h10.81l6.11,31.75,6.47-31.75h11.42l-12.09,43.47h-11.36l-6.11-30.04-5.98,30.04h-11.54Z"/>
    <path class="st0" d="M467.43,736.56c-3.85,4.29-8.99,6.44-15.42,6.44s-11.93-2.12-15.87-6.35c-3.95-4.23-5.92-9.71-5.92-16.42s2-11.99,6.01-16.3c4.01-4.31,9.23-6.47,15.66-6.47s11.64,2.07,15.51,6.2c3.87,4.13,5.8,9.68,5.8,16.64,0,6.55-1.92,11.98-5.77,16.27ZM458.97,710.21c-1.75-2.36-4.15-3.54-7.2-3.54s-5.47,1.21-7.27,3.63c-1.79,2.42-2.69,5.69-2.69,9.8s.89,7.55,2.66,9.95c1.77,2.4,4.22,3.6,7.36,3.6s5.49-1.2,7.2-3.6c1.71-2.4,2.56-5.78,2.56-10.13,0-4.11-.87-7.35-2.63-9.71Z"/>
    <path class="st0" d="M479.24,698.49h22.65c4.31,0,7.85,1.07,10.59,3.21,2.75,2.14,4.12,5.26,4.12,9.37,0,5.05-2.24,8.59-6.72,10.62,2.89.98,4.72,2.85,5.49,5.62.53,1.79.98,4.86,1.34,9.22,0,.12.02.4.06.82s.07.72.09.89c.02.16.05.42.09.76.04.35.09.61.15.79.06.18.13.42.21.7.08.28.19.54.34.76.14.22.3.46.46.7h-11.54c-.33-.77-.57-1.66-.73-2.66-.16-1-.28-2.21-.37-3.63-.08-1.42-.14-2.36-.18-2.81-.28-2.6-1-4.44-2.14-5.49-1.14-1.06-3.01-1.59-5.62-1.59h-6.96v16.18h-11.36v-43.47ZM498.6,717.72c2.16,0,3.84-.37,5.04-1.1,1.2-.73,1.8-2.16,1.8-4.27,0-3.38-2.32-5.07-6.96-5.07h-7.88v10.44h8Z"/>
    <path class="st0" d="M547.13,715.53l18.13,26.44h-14.1l-11.72-18.25-4.64,4.82v13.43h-11.23v-43.47h11.11v16.61l14.53-16.61h14.04l-16.12,17.03Z"/>
    <path class="st0" d="M591.4,711.56c-.24-3.54-2.6-5.31-7.08-5.31-1.79,0-3.2.34-4.21,1.01-1.02.67-1.53,1.58-1.53,2.72,0,.9.23,1.59.7,2.08s1.33.9,2.59,1.22c7.57,1.99,12.68,3.6,15.32,4.82,4.52,2.12,6.78,5.64,6.78,10.56,0,4.36-1.68,7.82-5.04,10.41-3.36,2.58-7.89,3.88-13.58,3.88-6.02,0-10.75-1.36-14.16-4.09-3.42-2.73-5.17-6.55-5.25-11.48h11.42c0,4.6,2.91,6.9,8.73,6.9,4.31,0,6.47-1.47,6.47-4.4,0-1.18-.42-2.11-1.25-2.78-.83-.67-2.33-1.29-4.49-1.86-4.11-1.14-7.69-2.28-10.75-3.42-5.66-2.04-8.49-5.64-8.49-10.81,0-4.11,1.58-7.38,4.73-9.8,3.15-2.42,7.42-3.63,12.79-3.63s9.6,1.2,12.55,3.6c2.95,2.4,4.47,5.86,4.55,10.38h-10.81Z"/>
    <path class="st0" d="M646.89,741.96h-11.42v-17.95h-14.71v17.95h-11.42v-43.47h11.42v15.51h14.71v-15.51h11.42v43.47Z"/>
    <path class="st0" d="M691.8,736.56c-3.85,4.29-8.98,6.44-15.42,6.44s-11.93-2.12-15.87-6.35c-3.95-4.23-5.92-9.71-5.92-16.42s2-11.99,6.01-16.3c4.01-4.31,9.23-6.47,15.66-6.47s11.64,2.07,15.51,6.2c3.87,4.13,5.8,9.68,5.8,16.64,0,6.55-1.92,11.98-5.77,16.27ZM683.34,710.21c-1.75-2.36-4.15-3.54-7.2-3.54s-5.47,1.21-7.27,3.63c-1.79,2.42-2.69,5.69-2.69,9.8s.89,7.55,2.66,9.95c1.77,2.4,4.22,3.6,7.36,3.6s5.49-1.2,7.2-3.6c1.71-2.4,2.56-5.78,2.56-10.13,0-4.11-.88-7.35-2.63-9.71Z"/>
    <path class="st0" d="M703.73,698.49h19.11c5.33,0,9.52,1.16,12.58,3.48,3.05,2.32,4.58,6.04,4.58,11.17,0,4.72-1.38,8.28-4.15,10.68-2.77,2.4-6.49,3.6-11.17,3.6h-9.59v14.53h-11.36v-43.47ZM721.5,718.64c1.18,0,2.14-.05,2.87-.15.73-.1,1.5-.32,2.29-.64.79-.33,1.38-.86,1.77-1.62.39-.75.58-1.74.58-2.96,0-1.99-.57-3.41-1.71-4.24-1.14-.83-2.77-1.25-4.88-1.25h-7.33v10.87h6.41Z"/>
  </g>
</svg>